<?xml version="1.0" standalone="no"?>
<!DOCTYPE svg PUBLIC "-//W3C//DTD SVG 1.1//EN" "http://www.w3.org/Graphics/SVG/1.1/DTD/svg11.dtd">
<!--Generator: Xara Designer (www.xara.com), SVG filter version: 6.3.0.31-->
<svg fill="none" fill-rule="evenodd" stroke="black" stroke-width="0.501" stroke-linejoin="bevel" stroke-miterlimit="10" font-family="Times New Roman" font-size="16" style="font-variant-ligatures:none" xmlns:xlink="http://www.w3.org/1999/xlink" xmlns="http://www.w3.org/2000/svg" version="1.1" overflow="visible" width="355.343pt" height="115.571pt" viewBox="13.284 -118.125 355.343 115.571">
 <defs>
	</defs>
 <g id="Layer 1" transform="scale(1 -1)">
  <path d="M 44.279,58.124 L 51.805,58.124 C 51.181,52.994 49.353,48.755 46.32,45.412 C 43.315,42.095 39.021,40.437 33.437,40.437 C 27.23,40.437 22.312,42.505 18.684,46.644 C 15.084,50.811 13.284,56.564 13.284,63.906 C 13.284,71.502 15.225,77.568 19.109,82.103 C 22.992,86.638 28.222,88.906 34.798,88.906 C 39.475,88.906 43.273,87.616 46.193,85.037 C 49.112,82.457 50.982,78.305 51.805,72.58 L 44.279,72.58 C 43.004,78.957 39.488,82.146 33.735,82.146 C 29.738,82.146 26.649,80.601 24.466,77.512 C 22.283,74.45 21.193,70.085 21.193,64.416 C 21.193,59.201 22.184,55.02 24.169,51.874 C 26.152,48.755 29.129,47.197 33.097,47.197 C 38.822,47.197 42.55,50.838 44.279,58.124 Z" fill="#000000" stroke="none" stroke-width="0.25" fill-rule="nonzero" stroke-linejoin="miter" marker-start="none" marker-end="none"/>
  <path d="M 59.798,104.467 L 67.451,104.467 L 67.451,81.423 C 70.88,86.411 75.529,88.906 81.397,88.906 C 86.271,88.906 90.042,87.46 92.706,84.569 C 95.37,81.706 96.703,77.823 96.703,72.92 L 96.703,41.882 L 89.049,41.882 L 89.049,71.942 C 89.049,75.711 88.312,78.347 86.839,79.85 C 85.364,81.381 83.125,82.146 80.121,82.146 C 76.124,82.146 73.006,80.856 70.767,78.277 C 68.556,75.726 67.451,71.927 67.451,66.882 L 67.451,41.882 L 59.798,41.882 L 59.798,104.467 Z" fill="#000000" stroke="none" stroke-width="0.25" fill-rule="nonzero" stroke-linejoin="miter" marker-start="none" marker-end="none"/>
  <rect x="-3.8265" y="-22.789" width="7.653" height="45.578" rx="0" ry="0" transform="matrix(1 0 0 1 112.306 64.671)" fill="#000000" fill-rule="nonzero" stroke-linejoin="miter" stroke="none" stroke-width="0.25"/>
  <path d="M 127.57,87.46 L 134.756,87.46 L 134.756,80.743 C 138.638,86.185 143.273,88.906 148.659,88.906 C 153.959,88.906 157.927,86.411 160.563,81.423 C 164.333,86.411 168.811,88.906 173.999,88.906 C 178.193,88.906 181.624,87.573 184.288,84.909 C 186.952,82.245 188.285,78.432 188.285,73.472 L 188.285,41.882 L 180.632,41.882 L 180.632,71.601 C 180.632,78.63 177.953,82.146 172.595,82.146 C 169.761,82.146 167.239,81.04 165.028,78.829 C 162.844,76.646 161.754,73.656 161.754,69.858 L 161.754,41.882 L 154.101,41.882 L 154.101,73.642 C 154.101,79.311 151.734,82.146 147.001,82.146 C 143.57,82.146 140.751,80.841 138.54,78.234 C 136.329,75.626 135.223,71.842 135.223,66.882 L 135.223,41.882 L 127.57,41.882 L 127.57,87.46 Z" fill="#000000" stroke="none" stroke-width="0.25" fill-rule="nonzero" stroke-linejoin="miter" marker-start="none" marker-end="none"/>
  <path d="M 206.822,63.311 C 206.822,58.379 207.97,54.453 210.266,51.534 C 212.562,48.642 215.623,47.197 219.45,47.197 C 223.191,47.197 226.195,48.728 228.464,51.789 C 230.759,54.85 231.907,59.512 231.907,65.777 C 231.907,76.689 227.797,82.146 219.577,82.146 C 211.074,82.146 206.822,75.867 206.822,63.311 Z M 206.694,80.743 C 210.039,86.185 214.744,88.906 220.81,88.906 C 226.138,88.906 230.632,86.893 234.288,82.869 C 237.972,78.872 239.815,73.189 239.815,65.819 C 239.815,58.534 238.057,52.483 234.543,47.665 C 231.056,42.845 226.138,40.437 219.79,40.437 C 214.262,40.437 210.053,42.478 207.162,46.559 L 207.162,24.195 L 199.51,24.195 L 199.51,87.46 L 206.694,87.46 L 206.694,80.743 Z" fill="#000000" stroke="none" stroke-width="0.25" fill-rule="nonzero" stroke-linejoin="miter" marker-start="none" marker-end="none"/>
  <path d="M 276.21,65.139 C 275.048,64.232 272.667,63.509 269.067,62.971 C 265.467,62.46 263.639,62.205 263.583,62.205 C 257.148,61.326 253.932,58.775 253.932,54.552 C 253.932,49.393 256.681,46.814 262.18,46.814 C 265.808,46.814 269.053,47.834 271.916,49.875 C 274.778,51.916 276.21,54.495 276.21,57.614 L 276.21,65.139 Z M 248.319,73.94 C 248.546,83.917 254.654,88.906 266.644,88.906 C 271.689,88.906 275.813,87.801 279.017,85.59 C 282.248,83.379 283.863,80.218 283.863,76.108 L 283.863,49.577 C 283.863,48.5 284.062,47.778 284.458,47.41 C 284.856,47.04 285.464,46.857 286.287,46.857 C 286.797,46.857 287.661,46.984 288.88,47.24 L 288.88,41.669 C 287.01,41.103 285.535,40.82 284.458,40.82 C 281.794,40.82 279.866,41.414 278.676,42.605 C 277.514,43.795 276.848,45.553 276.678,47.877 C 272.341,42.916 266.955,40.437 260.522,40.437 C 256.694,40.437 253.321,41.557 250.402,43.795 C 247.482,46.063 246.023,49.436 246.023,53.914 C 246.023,62.106 250.601,66.797 259.756,67.988 L 271.703,69.561 C 273.517,69.787 274.736,70.326 275.359,71.177 C 276.012,72.027 276.338,73.316 276.338,75.045 C 276.338,80.034 272.865,82.529 265.921,82.529 C 262.35,82.529 259.813,81.806 258.311,80.36 C 256.808,78.914 255.83,76.774 255.377,73.94 L 248.319,73.94 Z" fill="#000000" stroke="none" stroke-width="0.25" fill-rule="nonzero" stroke-linejoin="miter" marker-start="none" marker-end="none"/>
  <path d="M 298.063,41.882 L 298.063,87.46 L 305.249,87.46 L 305.249,79.85 C 307.346,83.336 309.373,85.717 311.329,86.993 C 313.312,88.268 315.566,88.906 318.089,88.906 C 318.599,88.906 319.237,88.806 320.002,88.608 L 320.002,80.743 L 317.111,80.743 C 313.738,80.743 310.989,79.538 308.863,77.129 C 306.765,74.719 305.716,71.828 305.716,68.455 L 305.716,41.882 L 298.063,41.882 Z" fill="#000000" stroke="none" stroke-width="0.25" fill-rule="nonzero" stroke-linejoin="miter" marker-start="none" marker-end="none"/>
  <path d="M 331.737,68.328 L 357.163,68.328 C 356.624,73.401 355.32,76.973 353.251,79.042 C 351.181,81.111 348.376,82.146 344.833,82.146 C 341.091,82.146 338.03,80.87 335.649,78.319 C 333.267,75.796 331.964,72.466 331.737,68.328 Z M 331.737,62.29 C 331.737,57.529 332.814,53.815 334.968,51.151 C 337.151,48.515 340.411,47.197 344.748,47.197 C 347.837,47.225 350.53,48.104 352.826,49.833 C 355.149,51.59 356.525,53.673 356.95,56.083 L 364.475,56.083 C 363.483,51.292 361.329,47.48 358.012,44.646 C 354.696,41.839 350.345,40.437 344.96,40.437 C 338.553,40.437 333.424,42.449 329.569,46.474 C 325.742,50.498 323.829,56.309 323.829,63.906 C 323.829,71.247 325.7,77.242 329.441,81.891 C 333.211,86.568 338.483,88.906 345.258,88.906 C 351.635,88.906 356.482,86.709 359.799,82.316 C 363.142,77.951 364.9,71.275 365.071,62.29 L 331.737,62.29 Z" fill="#000000" stroke="none" stroke-width="0.25" fill-rule="nonzero" stroke-linejoin="miter" marker-start="none" marker-end="none"/>
  <path d="M 108.141,104.467 L 110.472,104.457 C 110.735,104.457 110.796,104.307 110.605,104.124 L 109.631,103.179 C 109.442,102.997 109.135,102.998 108.948,103.185 L 108,104.13 C 107.813,104.316 107.876,104.467 108.141,104.467 Z" fill="#ff00ff" stroke="none" stroke-width="0.25" stroke-linejoin="miter" marker-start="none" marker-end="none"/>
  <path d="M 114.429,104.467 L 116.76,104.457 C 117.025,104.457 117.084,104.307 116.895,104.124 L 115.919,103.179 C 115.73,102.997 115.423,102.998 115.236,103.185 L 114.288,104.13 C 114.101,104.316 114.164,104.467 114.429,104.467 Z" fill="#ff00ff" stroke="none" stroke-width="0.25" stroke-linejoin="miter" marker-start="none" marker-end="none"/>
  <path d="M 111.286,98.486 C 111.597,98.57 111.917,98.385 112.001,98.072 C 112.085,97.761 111.9,97.441 111.587,97.357 C 111.277,97.273 110.956,97.458 110.872,97.771 C 110.788,98.082 110.974,98.402 111.286,98.486 Z" fill="#ff00ff" stroke="none" stroke-width="0.25" stroke-linejoin="miter" marker-start="none" marker-end="none"/>
  <path d="M 113.122,98.486 C 113.433,98.57 113.755,98.385 113.837,98.072 C 113.921,97.761 113.736,97.441 113.425,97.357 C 113.112,97.273 112.792,97.458 112.708,97.771 C 112.624,98.082 112.809,98.402 113.122,98.486 Z" fill="#ff00ff" stroke="none" stroke-width="0.25" stroke-linejoin="miter" marker-start="none" marker-end="none"/>
  <path d="M 112.503,93.747 C 116.855,93.97 119.335,96.123 118.768,101.414 C 119.212,101.383 119.432,100.229 119.712,100.556 C 122.516,103.817 120.656,109.081 116.107,108.194 C 114.839,107.946 114.01,107.086 112.36,106.248 C 112.348,106.248 112.352,106.243 112.341,106.243 C 112.316,106.247 112.272,106.237 112.253,106.248 C 110.603,107.086 109.774,107.946 108.505,108.194 C 103.957,109.081 102.097,103.817 104.901,100.556 C 105.181,100.229 105.4,101.383 105.845,101.414 C 105.278,96.123 107.758,93.97 112.11,93.747 L 112.503,93.747 Z M 110.335,90.97 C 109.836,90.97 109.146,91.256 108.795,91.609 C 105.328,94.827 100.417,97.956 100.451,101.393 C 100.085,104.915 102.24,112.207 103.251,112.485 L 108.792,117.488 C 109.144,117.839 109.835,118.125 110.333,118.125 L 111.631,118.125 L 111.629,118.125 L 112.305,118.125 L 112.308,118.125 L 112.982,118.125 L 114.28,118.125 C 114.778,118.125 115.469,117.839 115.821,117.488 L 121.362,112.485 C 122.373,112.207 124.528,104.915 124.162,101.393 C 124.194,97.956 119.285,94.827 115.817,91.609 C 115.467,91.256 114.776,90.97 114.278,90.97 C 113.621,90.852 112.964,90.806 112.306,90.81 C 111.649,90.806 110.992,90.852 110.335,90.97 Z" fill="#ff00ff" stroke="none" stroke-width="0.25" stroke-linejoin="miter" marker-start="none" marker-end="none"/>
  <text xml:space="preserve" transform="translate(198.276 6.33) scale(1 -1)" kerning="0" fill="#ff00ff" stroke="none" stroke-width="0.25" stroke-linejoin="miter" font-family="Arial" font-size="19"><tspan x="0" y="0">small business apps</tspan></text>
 </g>
</svg>
